<svg width="104" height="104" viewBox="0 0 72 72" fill="none" xmlns="http://www.w3.org/2000/svg">
<circle cx="36" cy="36" r="35" transform="rotate(90 36 36)" fill="#9CB8C9" stroke="#9CB8C9" stroke-width="2"/>
<path d="M36.0092 10.0102C47.6172 10.0227 57.8462 17.7573 61.0189 28.9307C61.4133 30.3174 61.6821 31.7266 61.8378 33.1585C61.9961 34.6129 62.0513 36.0724 61.9458 37.5319C61.4434 44.44 58.6475 50.2679 53.6159 55.0056C50.3578 58.0753 46.5245 60.1276 42.1737 61.2002C42.0154 61.2404 41.8622 61.258 41.7517 61.1198C41.6261 60.9666 41.5859 60.7782 41.6361 60.5848C41.6738 60.4416 41.7944 60.3888 41.93 60.3537C42.3319 60.2482 42.7364 60.1477 43.1333 60.0296C49.6168 58.0953 55.0754 53.5838 58.2406 47.5524C59.474 45.2011 60.3205 42.7192 60.7677 40.1017C61.0842 38.2529 61.1872 36.3889 61.0741 34.515C60.4863 24.6251 54.2163 16.3983 45.6528 12.8236C43.7387 12.0248 41.7542 11.4697 39.7018 11.1682C38.0941 10.9321 36.4789 10.8442 34.8536 10.9246C27.9079 11.2762 21.9268 14.1274 17.0032 19.5483C15.5864 21.1108 14.4007 22.8768 13.5014 24.7859C11.5772 28.8604 10.6277 33.1133 10.9341 37.4214C11.4315 44.4174 14.3404 50.2403 19.573 54.89C22.5824 57.5653 26.0766 59.3589 29.9878 60.3311C30.0381 60.3436 30.0908 60.3486 30.136 60.3687C30.1938 60.3964 30.2566 60.4265 30.3018 60.4692C30.445 60.5998 30.4023 60.8284 30.3094 61.0445C30.2441 61.1952 30.0833 61.258 29.8999 61.2128C29.4679 61.1022 29.0358 60.9942 28.6112 60.8686C19.6584 58.2059 12.9161 50.8783 10.7508 42.0737C10.2257 39.951 9.95947 37.7957 10.0147 35.6102C10.1956 28.353 12.901 22.186 18.1336 17.1569C21.5248 13.8988 25.5491 11.7686 30.1285 10.6909C31.6458 10.3342 33.1831 10.1207 34.7406 10.0554C35.1626 10.0378 35.5871 10.0252 36.0092 10.0102Z" fill="white"/>
<path d="M35.8855 17.3215C35.8252 17.4471 35.79 17.5225 35.7548 17.6004C32.542 24.6767 29.3291 31.7531 26.1137 38.827C24.8275 41.658 23.5364 44.484 22.2452 47.3126C22.1899 47.4357 22.1522 47.5311 22.2402 47.6743C22.5014 48.1039 22.4311 48.6314 22.0945 48.9906C21.7629 49.3448 21.2504 49.4453 20.8083 49.2443C20.3712 49.0459 20.11 48.5812 20.1677 48.1014C20.2255 47.6165 20.5898 47.2272 21.0796 47.1317C21.1298 47.1217 21.1801 47.1167 21.2404 47.1091C21.2755 47.0363 21.3107 46.9659 21.3434 46.8931C25.9856 36.7646 30.6303 26.6361 35.2725 16.5051C35.2851 16.4775 35.3002 16.4524 35.3077 16.4247C35.3454 16.2941 35.4283 16.2439 35.5664 16.2514C35.7775 16.2615 35.991 16.264 36.202 16.2514C36.3527 16.2414 36.4205 16.3067 36.4783 16.4348C37.0762 17.7335 37.6816 19.0297 38.2819 20.3284C42.3916 29.1858 46.5013 38.0407 50.611 46.8981C50.6788 47.0438 50.7541 47.1141 50.9275 47.1342C51.4399 47.1945 51.8017 47.6216 51.8318 48.1617C51.8619 48.6942 51.5128 49.1866 51.0028 49.3097C50.5808 49.4101 50.2065 49.3247 49.9227 49.0233C49.571 48.654 49.576 48.0963 49.777 47.6266C49.8222 47.5211 49.8121 47.4332 49.7619 47.3226C47.2021 41.7786 44.6474 36.2295 42.0851 30.6855C40.068 26.3196 38.0433 21.9587 36.0211 17.5953C35.9885 17.5225 35.9508 17.4522 35.8905 17.324L35.8855 17.3215Z" fill="white"/>
<path d="M35.5657 46.9092H36.3997L36.4449 46.9544C36.4449 48.0245 36.4449 49.0947 36.4449 50.1648C36.4449 53.2822 36.4449 56.3971 36.4449 59.5145C36.4449 59.5572 36.4499 59.6025 36.4449 59.6452C36.4298 59.7758 36.4775 59.8537 36.5956 59.924C36.9498 60.1451 37.1256 60.4716 37.1256 60.8936C37.1256 61.5041 36.5705 62.0793 35.8445 61.9788C35.3471 61.911 34.9954 61.5116 34.9075 61.1147C34.807 60.665 34.9904 60.1878 35.3923 59.9391C35.533 59.8511 35.5657 59.7557 35.5657 59.605C35.5607 56.8543 35.5632 54.1011 35.5632 51.3505C35.5632 49.9638 35.5632 48.5772 35.5632 47.1905V46.9067L35.5657 46.9092Z" fill="white"/>
</svg>
